<?xml version="1.0" encoding="utf-8"?>
<!-- Generator: Adobe Illustrator 19.0.0, SVG Export Plug-In . SVG Version: 6.00 Build 0)  -->
<svg version="1.1" id="Layer_1" xmlns="http://www.w3.org/2000/svg" xmlns:xlink="http://www.w3.org/1999/xlink" x="0px" y="0px"
	 viewBox="-255 347 100 100" style="enable-background:new -255 347 100 100;" xml:space="preserve">
<style type="text/css">
	.st0{fill:#CCC5B9;}
</style>
<g>
	<path class="st0" d="M-172.1,376.6l-0.4-0.4c-0.3-0.5-0.6-0.8-1.1-1.1l-17-16.9c-0.3-0.6-0.7-1-1.3-1.3l-0.3-0.3h-45.7v80.7h65.8
		L-172.1,376.6L-172.1,376.6z M-190.2,366.9l7.8,7.7h-7.8V366.9z M-178.1,431.4h-53.8v-68.8h35.7v18.2h18.1L-178.1,431.4
		L-178.1,431.4z"/>
	<rect x="-221.8" y="380.3" class="st0" width="15.7" height="6"/>
	<rect x="-221.8" y="391.3" class="st0" width="33.7" height="6"/>
	<rect x="-221.8" y="402.3" class="st0" width="33.7" height="6"/>
	<rect x="-221.8" y="413.3" class="st0" width="33.7" height="6"/>
</g>
</svg>
