<?xml version="1.0" encoding="utf-8"?>
<!-- Generator: Adobe Illustrator 19.0.0, SVG Export Plug-In . SVG Version: 6.00 Build 0)  -->
<svg version="1.1" id="Layer_1" xmlns="http://www.w3.org/2000/svg" xmlns:xlink="http://www.w3.org/1999/xlink" x="0px" y="0px"
	 viewBox="-255 347 100 100" style="enable-background:new -255 347 100 100;" xml:space="preserve">
<style type="text/css">
	.st0{fill:#CCC5B9;}
</style>
<path class="st0" d="M-161,405.8v-17.6l-11.9-0.8c-0.7-2.2-1.5-4.4-2.6-6.4l7.8-8.9l-12.4-12.4l-8.9,7.9c-2-1.1-4.2-2-6.4-2.6
	l-0.7-11.9h-17.6l-0.8,11.9c-2.2,0.7-4.4,1.5-6.4,2.6l-8.9-7.9l-12.4,12.4l7.8,8.9c-1.1,2-2,4.2-2.6,6.4l-11.9,0.7v17.7l11.9,0.8
	c0.7,2.2,1.5,4.4,2.6,6.4l-7.8,8.9l12.4,12.4l8.9-7.9c2,1.1,4.2,2,6.4,2.6l0.7,11.9h17.6l0.8-11.9c2.2-0.7,4.4-1.5,6.4-2.6l8.9,7.9
	l12.4-12.4l-7.9-9c1.1-2,2-4.2,2.6-6.4L-161,405.8z M-205,412.7c-8.7,0-15.7-7.1-15.7-15.7c0-8.7,7.1-15.7,15.7-15.7
	c8.7,0,15.7,7,15.7,15.7C-189.3,405.7-196.3,412.7-205,412.7L-205,412.7z"/>
</svg>
